<?xml version="1.0" encoding="utf-8"?>
<svg version="1.1" viewBox="0 0 265 120" xmlns="http://www.w3.org/2000/svg" width="265px" height="150px">
  <rect width="400" height="300" fill="none" x="-93.817" y="-60.948"/>
  <g style="" transform="matrix(0.870862, 0, 0, 0.738908, -59.578732, -38.926552)">
    <path d="M 70.723 233.563 L 220.26 89.294 L 369.797 233.563 L 70.723 233.563 Z" fill="#b0aba0" stroke="#252827" stroke-width="4" stroke-linejoin="round" style=""/>
    <path d="M 180.723 127.525 L 220.723 89.294 L 260.723 127.525 L 235.723 118.148 L 220.723 128.968 L 205.723 118.148 L 180.723 127.525 Z" fill="#ffffff" stroke="#252827" stroke-width="3" stroke-linejoin="round" style=""/>
  </g>
  <g transform="matrix(0.432611, -0.123886, 0.123886, 0.432611, -56.050404, 26.148489)" style="transform-origin: 155px 5px;">
    <path fill="#7b755f" stroke="#252827" stroke-width="8" d="M10 50 L280 50 L300 10 L10 10 Z"/>
    <path fill="#7b755f" stroke="#252827" stroke-width="8" d="M40 10 L60 -40 L230 -40 L250 10 Z"/>
    <circle cx="80" cy="-15" r="8" fill="#252827"/>
    <circle cx="110" cy="-15" r="8" fill="#252827"/>
    <circle cx="180" cy="-15" r="8" fill="#252827"/>
    <circle cx="210" cy="-15" r="8" fill="#252827"/>
    <rect x="140" y="-40" width="15" height="50" fill="#252827"/>
  </g>
  <path d="M 78.185 37.321 L 148.185 102.321 L 138.185 107.321 L 73.185 42.321 L 78.185 37.321 Z" fill="#5e5948" stroke="#252827" stroke-width="3" style="transform-box: fill-box; transform-origin: 50% 50%;" transform="matrix(0.889472, 0.45699, -0.45699, 0.889472, 0.000002, -0.000001)"/>
  <g transform="matrix(1, 0, 0, 1, -172.71199, -110.238846)">
    <g transform="matrix(-0.997827, 0.065894, -0.065894, -0.997827, 298.693542, 188.510834)">
      <circle r="10" fill="#ec4899" stroke="#252827" stroke-width="2"/>
      <path d="M-4 -2 Q0 -6 4 -2" fill="none" stroke="#252827" stroke-width="1.5" stroke-linecap="round"/>
    </g>
    <g transform="matrix(0.138111, -1.007697, 1.117834, 0.153205, 337.510773, 208.65123)" style="transform-origin: 3px 0px;">
      <rect x="-12" y="-6" width="24" height="12" rx="6" fill="#14b8a6" stroke="#252827" stroke-width="2"/>
      <path d="M12 0 L18 -2 M12 2 L17 5" stroke="#252827" stroke-width="1.5"/>
    </g>
    <g transform="matrix(1, 0, 0, 1, 230.10994, 199.761948)">
      <path d="M-8 -8 Q0 -12 8 -8 Q12 0 8 8 Q0 12 -8 8 Q-12 0 -8 -8" fill="#84cc16" stroke="#252827" stroke-width="2"/>
      <circle r="2" cx="2" cy="2" fill="#365314"/>
    </g>
    <circle cx="341.326" cy="159.394" r="5" fill="#f97316" stroke="#252827" stroke-width="2"/>
    <g transform="matrix(1, 0, 0, 1, 276.721375, 162.82959)">
      <circle r="12" fill="#a855f7" stroke="#252827" stroke-width="2"/>
      <circle r="4" cx="-2" cy="-2" fill="#4c1d95" opacity="0.6"/>
    </g>
  </g>
</svg>